<svg viewBox="0 0 533.33 533.33" xmlns="http://www.w3.org/2000/svg"><defs><clipPath id="a"><path d="M0 0h400v400H0z"/></clipPath><clipPath id="b"><path d="M-211.63 610.63h809.07v-809.07h-809.07z"/></clipPath></defs><g clip-path="url(#a)" transform="matrix(1.3333 0 0 -1.3333 0 533.33)"><g clip-path="url(#b)" opacity=".1"><path d="M-2.829 2.828l30.594 19.28L47.045 52.7l30.591 19.28 19.28 30.592 30.592 19.28 19.28 30.592 30.593 19.28 19.275 30.59 30.593 19.278 19.28 30.592 30.594 19.283 19.283 30.595 30.596 19.283 19.282 30.596 30.6 19.287 19.287 30.6M5.171-5.172l30.594 19.28L55.045 44.7l30.591 19.28 19.28 30.592 30.592 19.28 19.28 30.592 30.593 19.28 19.276 30.59 30.592 19.278 19.28 30.592 30.594 19.283 19.283 30.595 30.596 19.283 19.282 30.596 30.6 19.287 19.287 30.6M13.171-13.172l30.594 19.28L63.044 36.7l30.592 19.28 19.279 30.592 30.593 19.279 19.279 30.593 30.594 19.28 19.276 30.589 30.592 19.279 19.279 30.592 30.595 19.283 19.283 30.595 30.596 19.283 19.282 30.596 30.6 19.287 19.287 30.6M21.171-21.172l30.594 19.28L71.044 28.7l30.592 19.28 19.279 30.592 30.593 19.279 19.279 30.593 30.593 19.28 19.277 30.589 30.592 19.279 19.279 30.592 30.595 19.283 19.283 30.595 30.596 19.283 19.282 30.596 30.6 19.287 19.287 30.6M29.171-29.172l30.594 19.28L79.044 20.7l30.592 19.28 19.279 30.592 30.593 19.279 19.279 30.593 30.593 19.28 19.277 30.589 30.592 19.279 19.279 30.592 30.595 19.283 19.283 30.595 30.596 19.283 19.282 30.596 30.6 19.287 19.287 30.6M37.171-37.172l30.594 19.28L87.044 12.7l30.592 19.28 19.279 30.592 30.593 19.279 19.279 30.593 30.593 19.28 19.277 30.589 30.592 19.279 19.279 30.592 30.595 19.283 19.283 30.595 30.596 19.283 19.282 30.596 30.6 19.287 19.287 30.6M45.171-45.172l30.594 19.28L95.044 4.7l30.592 19.28 19.279 30.592 30.593 19.279 19.279 30.593 30.593 19.28 19.277 30.589 30.592 19.279 19.279 30.592 30.595 19.283 19.283 30.595 30.596 19.283 19.282 30.596 30.6 19.287 19.287 30.6M53.171-53.172l30.594 19.28L103.044-3.3l30.592 19.28 19.279 30.592 30.593 19.279 19.279 30.593 30.593 19.28 19.277 30.589 30.592 19.279 19.279 30.592 30.595 19.283 19.283 30.595 30.596 19.283 19.282 30.596 30.6 19.287 19.287 30.6M61.171-61.172l30.594 19.28L111.044-11.3l30.592 19.28 19.279 30.592 30.593 19.279 19.279 30.593 30.593 19.28 19.277 30.589 30.592 19.279 19.279 30.592 30.595 19.283 19.283 30.595 30.596 19.283 19.282 30.596 30.6 19.287 19.287 30.6M69.171-69.172l30.594 19.28L119.044-19.3 149.636-.02l19.279 30.592 30.593 19.279 19.279 30.593 30.593 19.28 19.277 30.589 30.592 19.279 19.279 30.592 30.595 19.283 19.283 30.595 30.596 19.283 19.282 30.596 30.6 19.287 19.287 30.6M77.171-77.172l30.594 19.28L127.044-27.3l30.592 19.28 19.279 30.592 30.592 19.279 19.28 30.593 30.593 19.28 19.277 30.589 30.592 19.279 19.279 30.592 30.595 19.283 19.283 30.595 30.596 19.283 19.282 30.596 30.6 19.287 19.287 30.6M85.171-85.172l30.594 19.28L135.044-35.3l30.592 19.28 19.279 30.592 30.592 19.279 19.28 30.593 30.593 19.28 19.277 30.589 30.592 19.279 19.279 30.592 30.595 19.283 19.283 30.595 30.596 19.283 19.282 30.596 30.6 19.287 19.287 30.6M93.171-93.172l30.594 19.28L143.044-43.3l30.592 19.28 19.279 30.592 30.592 19.279 19.28 30.593 30.593 19.28 19.277 30.589 30.592 19.279 19.279 30.592 30.595 19.283 19.283 30.595 30.596 19.283 19.282 30.596 30.6 19.287 19.287 30.6M101.17-101.17l30.594 19.28 19.279 30.592 30.592 19.28 19.279 30.592 30.592 19.279 19.28 30.593 30.593 19.28 19.277 30.589 30.592 19.279 19.279 30.592 30.595 19.283 19.283 30.595 30.596 19.283 19.282 30.596 30.6 19.287 19.287 30.6M109.17-109.17l30.594 19.28 19.279 30.592 30.592 19.28 19.279 30.592 30.592 19.279 19.28 30.593 30.593 19.28 19.277 30.589 30.592 19.279 19.279 30.592 30.595 19.283 19.283 30.595 30.596 19.283 19.282 30.596 30.6 19.287 19.287 30.6M117.17-117.17l30.594 19.28 19.279 30.592 30.592 19.28 19.279 30.592 30.592 19.279 19.28 30.593 30.593 19.28 19.277 30.589 30.592 19.279 19.279 30.592 30.595 19.283 19.283 30.595 30.596 19.283 19.282 30.596 30.6 19.287 19.287 30.6M125.17-125.17l30.594 19.28 19.279 30.592 30.592 19.28 19.279 30.592 30.592 19.279 19.28 30.593 30.593 19.28 19.277 30.589 30.592 19.279 19.279 30.592 30.595 19.283 19.283 30.595 30.596 19.283 19.282 30.596 30.6 19.287 19.287 30.6M133.17-133.17l30.594 19.28 19.279 30.592 30.592 19.28 19.279 30.592 30.592 19.279 19.28 30.593 30.593 19.28 19.277 30.589 30.592 19.279 19.279 30.592 30.595 19.283 19.283 30.595 30.596 19.283 19.282 30.596 30.6 19.287 19.287 30.6M141.17-141.17l30.594 19.28 19.279 30.592 30.592 19.28 19.279 30.592 30.592 19.279 19.28 30.593 30.593 19.28 19.277 30.589 30.592 19.279 19.279 30.592 30.595 19.283 19.283 30.595 30.596 19.283 19.282 30.596 30.6 19.287 19.287 30.6M149.17-149.17l30.594 19.28 19.279 30.592 30.592 19.28 19.279 30.592 30.592 19.279L298.786.446l30.593 19.28 19.277 30.589 30.592 19.279 19.279 30.592 30.595 19.283 19.283 30.595 30.596 19.283 19.282 30.596 30.6 19.287 19.287 30.6M157.17-157.17l30.594 19.28 19.279 30.592 30.592 19.28 19.279 30.592 30.592 19.279 19.28 30.593 30.593 19.28 19.277 30.589 30.592 19.279 19.279 30.592 30.595 19.283 19.283 30.595 30.596 19.283 19.282 30.596 30.6 19.287 19.287 30.6M165.17-165.17l30.594 19.28 19.279 30.592 30.592 19.28 19.279 30.592 30.592 19.279 19.28 30.593 30.593 19.28 19.277 30.589 30.592 19.279 19.279 30.592 30.595 19.283 19.283 30.595 30.596 19.283 19.282 30.596 30.6 19.287 19.287 30.6M173.17-173.17l30.594 19.28 19.279 30.592 30.592 19.28 19.279 30.592 30.592 19.279 19.28 30.593 30.593 19.28 19.277 30.589 30.592 19.279 19.279 30.592 30.595 19.283 19.283 30.595 30.596 19.283 19.282 30.596 30.6 19.287 19.287 30.6M181.17-181.17l30.594 19.28 19.279 30.592 30.592 19.28 19.279 30.592 30.592 19.279 19.28 30.593 30.593 19.28 19.277 30.589 30.592 19.279 19.279 30.592 30.595 19.283 19.283 30.595 30.596 19.283 19.282 30.596 30.6 19.287 19.287 30.6M189.17-189.17l30.594 19.28 19.279 30.592 30.592 19.28 19.279 30.592 30.592 19.279 19.28 30.593 30.593 19.28 19.277 30.589 30.592 19.279 19.279 30.592 30.595 19.283 19.283 30.595 30.596 19.283 19.282 30.596 30.6 19.287 19.287 30.6M197.17-197.17l30.594 19.28 19.279 30.592 30.592 19.28 19.279 30.592 30.592 19.279 19.28 30.593 30.593 19.28 19.277 30.589 30.592 19.279 19.279 30.592 30.595 19.283 19.283 30.595 30.596 19.283 19.282 30.596 30.6 19.287 19.287 30.6M-10.829 10.828l30.594 19.28L39.044 60.7l30.592 19.28 19.279 30.592 30.593 19.279 19.279 30.593 30.594 19.28 19.275 30.59 30.593 19.278 19.279 30.592 30.595 19.283 19.283 30.595 30.596 19.283 19.282 30.596 30.6 19.287 19.287 30.6M-18.829 18.828l30.594 19.28L31.044 68.7l30.592 19.28 19.279 30.592 30.593 19.279 19.279 30.593 30.594 19.28 19.275 30.59 30.593 19.278 19.279 30.592 30.595 19.283 19.283 30.595 30.596 19.283 19.282 30.596 30.6 19.287 19.287 30.6M-26.829 26.828l30.594 19.28L23.044 76.7l30.592 19.28 19.279 30.592 30.593 19.279 19.279 30.593 30.594 19.28 19.275 30.59 30.593 19.278 19.279 30.592 30.595 19.283 19.283 30.595 30.596 19.283 19.282 30.596 30.6 19.287 19.287 30.6M-34.829 34.828l30.594 19.28L15.044 84.7l30.592 19.28 19.279 30.592 30.593 19.279 19.279 30.593 30.594 19.28 19.275 30.59 30.593 19.278 19.279 30.592 30.595 19.283 19.283 30.595 30.596 19.283 19.282 30.596 30.6 19.287 19.287 30.6M-42.829 42.828l30.594 19.28L7.044 92.7l30.592 19.28 19.279 30.592 30.593 19.279 19.279 30.593 30.594 19.28 19.275 30.59 30.593 19.278 19.279 30.592 30.595 19.283 19.283 30.595 30.596 19.283 19.282 30.596 30.6 19.287 19.287 30.6M-50.829 50.828l30.594 19.28L-.956 100.7l30.592 19.28 19.279 30.592 30.593 19.279 19.279 30.593 30.594 19.28 19.275 30.59 30.593 19.278 19.278 30.592 30.596 19.283 19.283 30.595 30.596 19.283 19.282 30.596 30.6 19.287 19.287 30.6M-58.829 58.828l30.594 19.28L-8.956 108.7l30.592 19.28 19.279 30.592 30.593 19.279 19.279 30.593 30.594 19.28 19.275 30.59 30.593 19.278 19.278 30.592 30.596 19.283 19.283 30.595 30.596 19.283 19.282 30.596 30.6 19.287 19.287 30.6M-66.829 66.828l30.594 19.28 19.279 30.592 30.592 19.28 19.279 30.592 30.593 19.279 19.279 30.593 30.594 19.28 19.275 30.59 30.593 19.278 19.278 30.592 30.596 19.283 19.283 30.595 30.596 19.283 19.282 30.596 30.6 19.287 19.287 30.6M-74.829 74.828l30.594 19.28 19.279 30.592 30.592 19.28 19.279 30.592 30.593 19.279 19.279 30.593 30.594 19.28 19.275 30.59 30.593 19.278 19.278 30.592 30.596 19.283 19.283 30.595 30.596 19.283 19.282 30.596 30.6 19.287 19.287 30.6M-82.829 82.828l30.594 19.28 19.279 30.592 30.592 19.28 19.279 30.592 30.593 19.279 19.279 30.593 30.594 19.28 19.275 30.59 30.593 19.278 19.278 30.592 30.596 19.283 19.283 30.595 30.596 19.283 19.282 30.596 30.6 19.287 19.287 30.6M-90.829 90.828l30.594 19.28 19.279 30.592 30.592 19.28 19.279 30.592 30.593 19.279 19.279 30.593 30.594 19.28 19.275 30.59 30.593 19.278 19.278 30.592 30.596 19.283 19.283 30.595 30.596 19.283 19.282 30.596 30.6 19.287 19.287 30.6M-98.829 98.828l30.594 19.28 19.279 30.592 30.592 19.28L.915 198.572l30.593 19.279 19.279 30.593 30.594 19.28 19.275 30.59 30.593 19.278 19.278 30.592 30.596 19.283 19.282 30.595 30.597 19.283 19.282 30.596 30.6 19.287 19.287 30.6M-106.83 106.83l30.594 19.28 19.279 30.592 30.592 19.28 19.279 30.592 30.593 19.279 19.279 30.593 30.594 19.28 19.275 30.59 30.593 19.278 19.278 30.592 30.596 19.283 19.282 30.595 30.597 19.283 19.282 30.596 30.6 19.287 19.287 30.6M-114.83 114.83l30.594 19.28 19.279 30.592 30.592 19.28 19.279 30.592 30.593 19.279 19.279 30.593 30.594 19.28 19.275 30.59 30.593 19.278 19.278 30.592 30.596 19.283 19.282 30.595 30.597 19.283 19.282 30.596 30.6 19.287 19.287 30.6M-122.83 122.83l30.594 19.28 19.279 30.592 30.592 19.28 19.279 30.592 30.593 19.279 19.279 30.593 30.594 19.28 19.275 30.59 30.593 19.278 19.278 30.592 30.596 19.283 19.282 30.595 30.597 19.283 19.282 30.596 30.6 19.287 19.287 30.6M-130.83 130.83l30.594 19.28 19.279 30.592 30.592 19.28 19.279 30.592 30.593 19.279 19.279 30.593 30.594 19.28 19.275 30.59 30.593 19.278 19.278 30.592 30.596 19.283 19.282 30.595L199 449.347l19.283 30.596 30.6 19.287 19.287 30.6M-138.83 138.83l30.594 19.28 19.279 30.592 30.592 19.28 19.279 30.592 30.593 19.279 19.279 30.593 30.594 19.28 19.275 30.59 30.593 19.278 19.278 30.592 30.596 19.283 19.282 30.595L191 457.347l19.283 30.596 30.6 19.287 19.287 30.6M-146.83 146.83l30.594 19.28 19.279 30.592 30.592 19.28 19.279 30.592 30.593 19.279 19.279 30.593 30.594 19.28 19.275 30.59 30.593 19.278 19.278 30.592 30.596 19.283 19.282 30.595L183 465.347l19.283 30.596 30.6 19.287 19.287 30.6M-154.83 154.83l30.594 19.28 19.279 30.593 30.592 19.279 19.279 30.592 30.593 19.279 19.279 30.593 30.594 19.28 19.275 30.59 30.593 19.278 19.278 30.592 30.596 19.283 19.282 30.595L175 473.347l19.283 30.596 30.6 19.287 19.287 30.6M-162.83 162.83l30.594 19.28 19.279 30.593 30.592 19.279 19.279 30.592 30.593 19.279 19.279 30.593 30.594 19.28 19.275 30.59 30.593 19.278 19.278 30.592 30.596 19.283 19.282 30.595L167 481.347l19.283 30.596 30.6 19.287 19.287 30.6M-170.83 170.83l30.594 19.28 19.279 30.593 30.592 19.279 19.279 30.592 30.593 19.279 19.279 30.593 30.594 19.28 19.275 30.59 30.593 19.278 19.278 30.592 30.596 19.283 19.282 30.595L159 489.347l19.283 30.596 30.6 19.287 19.287 30.6M-178.83 178.83l30.594 19.28 19.279 30.593 30.592 19.279 19.279 30.592 30.593 19.279 19.279 30.593 30.594 19.28 19.275 30.59 30.593 19.278 19.278 30.592 30.596 19.283 19.282 30.595L151 497.347l19.283 30.596 30.6 19.287 19.287 30.6M-186.83 186.83l30.594 19.281 19.279 30.592 30.592 19.279 19.279 30.592 30.593 19.279 19.279 30.593 30.594 19.28 19.275 30.59 30.593 19.278 19.278 30.592 30.596 19.283 19.282 30.595L143 505.347l19.283 30.596 30.6 19.287 19.287 30.6M-194.83 194.83l30.594 19.281 19.279 30.592 30.592 19.279 19.279 30.592 30.593 19.279 19.279 30.593 30.594 19.28 19.275 30.59 30.593 19.278 19.278 30.592 30.596 19.283 19.282 30.595L135 513.347l19.283 30.596 30.6 19.287 19.287 30.6M-202.83 202.83l30.594 19.28 19.279 30.592 30.592 19.279 19.279 30.593 30.593 19.278 19.279 30.594 30.594 19.28 19.275 30.589 30.593 19.279 19.278 30.592 30.596 19.282 19.282 30.596L127 521.346l19.283 30.597 30.6 19.286 19.287 30.601M-210.83 210.83l30.594 19.28 19.279 30.592 30.592 19.279 19.279 30.593 30.593 19.278 19.279 30.594 30.594 19.28 19.275 30.589 30.593 19.279 19.278 30.592 30.596 19.282 19.282 30.596L119 529.346l19.283 30.597 30.6 19.286 19.287 30.601" fill="none" stroke="#16b408" stroke-miterlimit="10" stroke-width="3"/></g></g></svg>